<svg xmlns="http://www.w3.org/2000/svg" xmlns:xlink="http://www.w3.org/1999/xlink" width="180" height="40.078" viewBox="0 0 180 40.078">
  <defs>
    <linearGradient id="linear-gradient" x1="0.237" y1="0.909" x2="0.763" y2="0.059" gradientUnits="objectBoundingBox">
      <stop offset="0" stop-color="#bc94ff"/>
      <stop offset="0.2" stop-color="#bc94ff"/>
      <stop offset="0.8" stop-color="#ff873c"/>
      <stop offset="1" stop-color="#ff873c"/>
    </linearGradient>
  </defs>
  <g id="Group_1411" data-name="Group 1411" transform="translate(-180.271 437.792)">
    <path id="Wordmark" d="M798.592-390.4v13.423H796.1v-5.676h-6.4v5.676H787.2V-390.4h2.493v5.369h6.4V-390.4Zm4.562,11.026V-390.4h-2.492v13.423h10.371v-2.4Zm19.812-8.646v-2.4H812.753V-377h10.213v-2.4h-7.72v-3.279h5.5v-2.378h-5.5v-2.973Zm12.278-2.38H824.686v2.4h4.032v11.026h2.493V-388h4.033Zm1.717,13.423h2.493V-390.4h-2.493ZM785.482-390.4h-11.2v2.4h4.352v11.026h2.493V-388h4.353Zm65.619,8.224a3.455,3.455,0,0,1-3.361,2.956,4.217,4.217,0,0,1-4.049-4.469,4.3,4.3,0,0,1,4.049-4.557,3.579,3.579,0,0,1,3.361,2.916l2.21-.827a5.7,5.7,0,0,0-5.571-4.595c-3.884,0-6.425,3.092-6.529,6.956l.006.275c.1,3.864,2.639,6.894,6.523,6.894a5.708,5.708,0,0,0,5.571-4.723Zm-81.945-5.439-2.209,5.456a11.786,11.786,0,0,1,3.7-1.65Zm2.406,5.969a9.654,9.654,0,0,0-6.73,4.669h-2.607L767.67-390.4h2.954l5.465,13.423h-2.619l-1.907-4.669m93.592-1.546c-.078-.035-7.276-3.128-7.276-3.128-.1-.2-.556-2.257,2.3-2.184a2.924,2.924,0,0,1,2.8,2.47l2.333-.941a5.062,5.062,0,0,0-5.136-3.881c-2.843,0-4.92,1.588-4.92,3.823a3.785,3.785,0,0,0,.789,2.468l7.19,3.211c.013.078.315,2.429-2.862,2.456-1.863.016-3.156-1.157-3.588-3.274l-2.294.823a5.627,5.627,0,0,0,5.881,4.8c3.234,0,5.351-1.968,5.351-4.634a3.164,3.164,0,0,0-.57-2.011M810.093-397.6v-11.026H807.6V-395.2h10.6v-2.4ZM777.373-408.62l-2.435,9.76-2.531-9.76h-2.685l-2.531,9.664-2.4-9.664h-2.57l3.451,13.423h2.992l2.4-9.338,2.4,9.338h2.991L779.9-408.62Zm13.8,6.75a4.182,4.182,0,0,1-4.238,4.429,4.21,4.21,0,0,1-4.315-4.429,4.253,4.253,0,0,1,4.315-4.468,4.215,4.215,0,0,1,4.238,4.468m-11.141,0a6.725,6.725,0,0,0,6.9,6.961,6.7,6.7,0,0,0,6.845-6.961,6.732,6.732,0,0,0-6.845-7,6.757,6.757,0,0,0-6.9,7m22.027-.6a1.7,1.7,0,0,0,1.274-1.831,1.728,1.728,0,0,0-1.274-1.831H798.03v3.662h4.026m-4.026,2.493v4.779h-2.492v-13.428h6.9a4.33,4.33,0,0,1,3.4,4.325,4.33,4.33,0,0,1-3.4,4.324,4.072,4.072,0,0,0,3.3,2.47v2.346a6.233,6.233,0,0,1-4.123-1.6,8.029,8.029,0,0,1-2.068-3.217Zm28.073,2.265a4.608,4.608,0,0,0,3.153-4.212,4.608,4.608,0,0,0-3.153-4.2h-3.687v8.407H826.1m-6.179,2.515v-13.422h6.66a6.845,6.845,0,0,1,5.164,6.71,6.42,6.42,0,0,1-5.164,6.712Z" transform="translate(-510.139 -25.354)" fill="#1e1e1e"/>
    <path id="Logo" d="M184.264-412.771l-.119-.046-3.873-3.874a35.312,35.312,0,0,1,3.528-6.2c2.218,2.079,6.668,4.505,15.354,4.505.306,0,.617,0,.933-.009,14.888-.289,30.215-9.565,33.836-12.255a35.241,35.241,0,0,1,2.925,2.462,116.565,116.565,0,0,1-24.327,12.967,55.658,55.658,0,0,1-16.214,3.786A32.971,32.971,0,0,1,184.264-412.771Zm.139-10.966c.9.982,3.793,2.893,8.883,3.822,4.151.758,11.043,1.042,20.3-1.912a73.522,73.522,0,0,0,19.472-9.459,35.422,35.422,0,0,0-3.386-2.125,62.912,62.912,0,0,1-21.445,7.368,42.094,42.094,0,0,1-6.157.513,23.784,23.784,0,0,1-5.753-.647,9.513,9.513,0,0,1-5.718-3.5q-.112-.163-.177-.276A36.192,36.192,0,0,0,184.4-423.737Zm23.145-9.155a44.918,44.918,0,0,0,15.321-3.168c.081-.036.213-.1.288-.133a35.639,35.639,0,0,0-10.534-1.6,35.233,35.233,0,0,0-14.114,2.931,1.071,1.071,0,0,0,.169.343C199.77-433.088,203.976-432.741,207.548-432.893Zm.528,5.827a60.733,60.733,0,0,0,20.535-6.909,35.108,35.108,0,0,0-4.086-1.76c-.119.073-.278.166-.416.234-1.932.959-7.412,3.233-16.556,3.637q-.912.04-1.755.04a23.259,23.259,0,0,1-4.448-.371,5.59,5.59,0,0,1-3.5-1.7,2.262,2.262,0,0,1-.291-.529,35.348,35.348,0,0,0-6.314,3.833,5.337,5.337,0,0,0,.76.989C195.635-425.831,203.632-426.394,208.076-427.065Zm-8.827,29.351,6.549-6.549a40.439,40.439,0,0,1-11.167,1.931Zm43.981-22.426c-.509.445-1.062.932-1.656,1.457-4.849,4.277-12.175,10.74-20.6,15.943L226-397.714,244.985-416.7A35.166,35.166,0,0,0,243.231-420.14Zm-.54-.9a35.46,35.46,0,0,0-2.137-3.072,130.507,130.507,0,0,1-24.977,15.979l4.646,4.644c8.288-5.075,16.572-12.366,21.037-16.3Q242.068-420.5,242.691-421.04Zm-5.09-6.416c-4.072,3.035-22.892,15-38.627,16.843a41.708,41.708,0,0,1-4.774.264,35.955,35.955,0,0,1-8.519-.938l7.957,7.959a45.522,45.522,0,0,0,13.778-2.554l5.206-5.206,2.182,2.181a135.8,135.8,0,0,0,25.11-16Q238.82-426.238,237.6-427.456Z" fill="url(#linear-gradient)"/>
    <path id="TM" d="M1610.6-165.1h-.626v1.682h-.216V-165.1h-.626v-.208h1.469Zm2.206,1.682h-.216v-1.515l-.645,1.515h-.232l-.64-1.507-.005,1.507h-.216v-1.89h.278l.7,1.644.7-1.644h.278Z" transform="translate(-1252.536 -238.857)"/>
  </g>
</svg>
